# xmcd CD database file
#
# Track frame offsets:
#	150
#	7310
#	23400
#	33522
#	50562
#	66727
#	80602
#	95495
#	109590
#	129747
#	141622
#	158487
#	172542
#	188130
#
# Disc length: 2773 seconds
#
# Revision: 0
# Processed by: cddbd v1.5.2PL0 Copyright (c) Steve Scherf et al.
# Submitted via: NeoAudio 9.9.9
#
DISCID=bc0ad30e
DTITLE=Liberty - Revive Us Again
DYEAR=2002
DGENRE=Country
TTITLE0=Revive Us Again
TTITLE1=Everywhere I Go
TTITLE2=Hard Trials will Soon be Over
TTITLE3=I See the Cross
TTITLE4=Love Kept Him There
TTITLE5=Forgiven
TTITLE6='Til the Storm
TTITLE7=Won't That Be Heaven
TTITLE8=Th Lighthouse
TTITLE9=Pray
TTITLE10=Farther Along
TTITLE11=I've God a Love
TTITLE12=One Holy Lamb
TTITLE13=Whatever it Takes
EXTD=YEAR: 2002
EXTT0=
EXTT1=
EXTT2=
EXTT3=
EXTT4=
EXTT5=
EXTT6=
EXTT7=
EXTT8=
EXTT9=
EXTT10=
EXTT11=
EXTT12=
EXTT13=
PLAYORDER=
